<svg width="664" height="510" viewBox="0 0 664 510" fill="none" xmlns="http://www.w3.org/2000/svg">
<path d="M3 374.786V476.286L332 506.5V405M3 374.786L332 405M3 374.786L332 295V405" stroke="white" stroke-width="5"/>
<path d="M661 374.786V476.286L332 506.5V405M661 374.786L332 405M661 374.786L332 295V405" stroke="white" stroke-width="5"/>
<path d="M3 224.786V326.286L332 356.5V255M3 224.786L332 255M3 224.786L332 145V255" stroke="white" stroke-width="5"/>
<path d="M661 224.786V326.286L332 356.5V255M661 224.786L332 255M661 224.786L332 145V255" stroke="white" stroke-width="5"/>
<path d="M3 83.7857V185.286L332 215.5V114M3 83.7857L332 114M3 83.7857L332 4V114" stroke="white" stroke-width="5"/>
<path d="M661 83.7857V185.286L332 215.5V114M661 83.7857L332 114M661 83.7857L332 4V114" stroke="white" stroke-width="5"/>
</svg>
